# xmcd
#
# Track frame offsets:
#	150
#	17725
#	31158
#	45536
#	61461
#	77259
#	90429
#	105179
#	115679
#	131552
#	143870
#	157908
#	172073
#	187261
#	200126
#	211816
#	224506
#	238341
#	252856
#	265994
#	277817
#	293542
#
# Disc length: 4138 seconds
#
# Revision: 1
# Processed by: cddbd v1.5.2PL0 Copyright (c) Steve Scherf et al.
# Submitted via: audiograbber 1.83.01
#
DISCID=35102816
DTITLE=Various Artist - Halland's Country Hits Volume 1
DYEAR=1900
DGENRE=
TTITLE0=Doug Stone - Too Busy Being In Love
TTITLE1=Doug Stone - Warning Labels
TTITLE2=Doug Stone - Why Didn't I Think Of That
TTITLE3=George Strait - Baby Blue
TTITLE4=George Strait - Baby's Gotten Good At Goodbye
TTITLE5=George Strait - Easy Come, Easy Go
TTITLE6=George Strait - Gone As A Girl Can Get
TTITLE7=George Strait - Heartland
TTITLE8=George Strait - I Cross My Heart
TTITLE9=George Strait - If I Know Me
TTITLE10=George Strait - Love Without End, Amen
TTITLE11=George Strait - Ocean Front Property
TTITLE12=George Strait - So Much Like My Dad
TTITLE13=George Strait - The Chair
TTITLE14=George Strait - The Fireman
TTITLE15=George Strait - When Did You Stop Loving Me
TTITLE16=George Strait - You Know Me Better Than That
TTITLE17=George Strait - You Look So Good In Love
TTITLE18=Marty Stuart - Burn Me Down
TTITLE19=Marty Stuart - Hillbilly Rock
TTITLE20=Marty Stuart With Travis Tritt - This One's Gonna Hurt You
TTITLE21=Doug Supernaw - I Don't Call Him Daddy
EXTD=
EXTT0=
EXTT1=
EXTT2=
EXTT3=
EXTT4=
EXTT5=
EXTT6=
EXTT7=
EXTT8=
EXTT9=
EXTT10=
EXTT11=
EXTT12=
EXTT13=
EXTT14=
EXTT15=
EXTT16=
EXTT17=
EXTT18=
EXTT19=
EXTT20=
EXTT21=
PLAYORDER=
